<mxfile host="app.diagrams.net" agent="Mozilla/5.0 (Windows NT 10.0; Win64; x64) AppleWebKit/537.36 (KHTML, like Gecko) Chrome/135.0.0.0 Safari/537.36" version="26.2.14">
  <diagram name="Page-1" id="gp1TOCht0QJQ0VznsFnH">
    <mxGraphModel dx="872" dy="473" grid="1" gridSize="10" guides="1" tooltips="1" connect="1" arrows="1" fold="1" page="1" pageScale="1" pageWidth="850" pageHeight="1100" math="0" shadow="0">
      <root>
        <mxCell id="0" />
        <mxCell id="1" parent="0" />
        <mxCell id="SotmDrEkjYpcWd3qv5qj-1" value="First number" style="rounded=0;whiteSpace=wrap;html=1;strokeColor=#FFFFFF;" vertex="1" parent="1">
          <mxGeometry x="80" y="80" width="120" height="60" as="geometry" />
        </mxCell>
        <mxCell id="SotmDrEkjYpcWd3qv5qj-2" value="Second Number" style="rounded=0;whiteSpace=wrap;html=1;strokeColor=#FFFFFF;" vertex="1" parent="1">
          <mxGeometry x="80" y="200" width="120" height="60" as="geometry" />
        </mxCell>
        <mxCell id="SotmDrEkjYpcWd3qv5qj-3" value="Sum Number" style="rounded=0;whiteSpace=wrap;html=1;strokeColor=#FFFFFF;" vertex="1" parent="1">
          <mxGeometry x="80" y="320" width="120" height="60" as="geometry" />
        </mxCell>
        <mxCell id="SotmDrEkjYpcWd3qv5qj-4" value="" style="rounded=1;whiteSpace=wrap;html=1;fillColor=#CC99FF;" vertex="1" parent="1">
          <mxGeometry x="310" y="80" width="120" height="60" as="geometry" />
        </mxCell>
        <mxCell id="SotmDrEkjYpcWd3qv5qj-5" value="" style="rounded=1;whiteSpace=wrap;html=1;fillColor=#CC99FF;" vertex="1" parent="1">
          <mxGeometry x="310" y="200" width="120" height="60" as="geometry" />
        </mxCell>
        <mxCell id="SotmDrEkjYpcWd3qv5qj-6" value="" style="rounded=1;whiteSpace=wrap;html=1;fillColor=#CC99FF;" vertex="1" parent="1">
          <mxGeometry x="310" y="320" width="120" height="60" as="geometry" />
        </mxCell>
        <mxCell id="SotmDrEkjYpcWd3qv5qj-7" value="Find Sum" style="rounded=1;whiteSpace=wrap;html=1;fillColor=#66FFFF;" vertex="1" parent="1">
          <mxGeometry x="320" y="420" width="90" height="40" as="geometry" />
        </mxCell>
      </root>
    </mxGraphModel>
  </diagram>
</mxfile>
